<svg width="22" height="22" viewBox="0 0 22 22" fill="none" xmlns="http://www.w3.org/2000/svg">
<path d="M8.39365 19.0405V16.2293C8.39363 15.5143 8.97656 14.9333 9.69879 14.9285H12.3444C13.07 14.9285 13.6583 15.5109 13.6583 16.2293V16.2293V19.0492C13.6582 19.6563 14.1476 20.1524 14.7606 20.1667H16.5244C18.2826 20.1667 19.7079 18.7556 19.7079 17.015V17.015V9.01803C19.6985 8.33327 19.3737 7.69025 18.826 7.27196L12.7941 2.46154C11.7374 1.62395 10.2352 1.62395 9.1785 2.46154L3.17306 7.28069C2.62327 7.69728 2.29797 8.34137 2.2912 9.02676V17.015C2.2912 18.7556 3.7165 20.1667 5.4747 20.1667H7.23841C7.86669 20.1667 8.37601 19.6625 8.37601 19.0405V19.0405" stroke="#CFD8E3" stroke-width="1.5" stroke-linecap="round" stroke-linejoin="round"/>
</svg>
