<svg width="13" height="14" viewBox="0 0 13 14" fill="none" xmlns="http://www.w3.org/2000/svg">
<path d="M11.75 5.6875H7.8125V1.75C7.8125 1.28516 7.40234 0.875 6.9375 0.875H6.0625C5.57031 0.875 5.1875 1.28516 5.1875 1.75V5.6875H1.25C0.757812 5.6875 0.375 6.09766 0.375 6.5625V7.4375C0.375 7.92969 0.757812 8.3125 1.25 8.3125H5.1875V12.25C5.1875 12.7422 5.57031 13.125 6.0625 13.125H6.9375C7.40234 13.125 7.8125 12.7422 7.8125 12.25V8.3125H11.75C12.2148 8.3125 12.625 7.92969 12.625 7.4375V6.5625C12.625 6.09766 12.2148 5.6875 11.75 5.6875Z" fill="white"/>
</svg>
