<svg width="22" height="22" viewBox="0 0 22 22" fill="none" xmlns="http://www.w3.org/2000/svg">
<path fill-rule="evenodd" clip-rule="evenodd" d="M11 1.83333C16.0626 1.83333 20.1666 5.93739 20.1666 11C20.1666 16.0626 16.0626 20.1667 11 20.1667C5.93738 20.1667 1.83331 16.0626 1.83331 11C1.83331 5.93739 5.93738 1.83333 11 1.83333Z" stroke="#CFD8E3" stroke-width="1.5" stroke-linecap="round" stroke-linejoin="round"/>
<path fill-rule="evenodd" clip-rule="evenodd" d="M13.7959 11.428C13.1277 12.1485 11.309 13.3677 10.3786 13.7591C10.2301 13.8214 9.85152 13.9534 9.76993 13.9552C9.59668 13.9607 9.42985 13.8636 9.34918 13.7077C9.31802 13.6472 9.22635 13.2522 9.19702 13.0762C9.10993 12.5408 9.06502 11.7094 9.06593 10.8734C9.06502 9.99616 9.1136 9.12532 9.21077 8.59549C9.23643 8.45249 9.3116 8.12341 9.3336 8.07024C9.37485 7.97124 9.45002 7.89332 9.54077 7.84474C9.61043 7.80716 9.69018 7.78699 9.76993 7.78974C9.85152 7.79157 10.1833 7.90799 10.297 7.95291C11.1935 8.30124 13.0901 9.56441 13.7868 10.3069C13.8491 10.3738 14.0205 10.5535 14.0489 10.5902C14.114 10.6727 14.1461 10.7726 14.1461 10.8734C14.1461 10.9669 14.1177 11.0622 14.059 11.142C14.0288 11.1832 13.8537 11.3666 13.7959 11.428Z" stroke="#CFD8E3" stroke-width="1.5" stroke-linecap="round" stroke-linejoin="round"/>
</svg>
