<svg width="16" height="16" viewBox="0 0 16 16" fill="none" xmlns="http://www.w3.org/2000/svg">
<path fill-rule="evenodd" clip-rule="evenodd" d="M6.66671 12C3.72119 12 1.33337 9.61214 1.33337 6.66662C1.33337 3.7211 3.72119 1.33328 6.66671 1.33328C9.61223 1.33328 12 3.7211 12 6.66662C12 7.89909 11.582 9.03393 10.8799 9.93705L14.4714 13.5285L13.5286 14.4713L9.93713 10.8799C9.03401 11.5819 7.89918 12 6.66671 12ZM10.6667 6.66655C10.6667 8.87569 8.87586 10.6666 6.66673 10.6666C4.45759 10.6666 2.66673 8.87569 2.66673 6.66655C2.66673 4.45741 4.45759 2.66655 6.66673 2.66655C8.87586 2.66655 10.6667 4.45741 10.6667 6.66655Z" fill="#969BA0"/>
</svg>
