<svg width="22" height="22" viewBox="0 0 22 22" fill="none" xmlns="http://www.w3.org/2000/svg">
<path fill-rule="evenodd" clip-rule="evenodd" d="M19.7304 8.94012C19.1445 5.3345 16.082 2.65212 12.4306 2.54652C12.257 2.53972 12.0878 2.60222 11.9603 2.72026C11.8328 2.83831 11.7575 3.0022 11.751 3.17581V3.17581V3.23455L12.1621 9.38481C12.1891 9.79883 12.545 10.1135 12.9592 10.0896L19.1263 9.67848C19.3 9.66563 19.4615 9.58402 19.5749 9.45172C19.6883 9.31943 19.7443 9.14737 19.7304 8.97368V8.94012Z" stroke="#CFD8E3" stroke-width="1.5" stroke-linecap="round" stroke-linejoin="round"/>
<path d="M8.1598 6.2048C8.55209 6.11406 8.95354 6.31478 9.11632 6.68306C9.15896 6.76968 9.18459 6.86368 9.19183 6.95995C9.27574 8.15141 9.45194 10.7609 9.55263 12.1705C9.56982 12.4244 9.68749 12.661 9.87961 12.8279C10.0717 12.9948 10.3224 13.0783 10.5763 13.0599V13.0599L15.7532 12.741C15.9844 12.7271 16.2109 12.8094 16.3794 12.9683C16.5478 13.1271 16.6431 13.3486 16.6426 13.5801V13.5801C16.4328 16.7063 14.1868 19.3197 11.1277 19.9971C8.06859 20.6746 4.92916 19.2537 3.41914 16.5084C2.96837 15.7182 2.68291 14.8447 2.58009 13.9409C2.53613 13.6635 2.51927 13.3825 2.52974 13.1018C2.53865 9.76333 4.88329 6.88677 8.15141 6.2048" stroke="#CFD8E3" stroke-width="1.5" stroke-linecap="round" stroke-linejoin="round"/>
</svg>
