<svg width="24" height="24" viewBox="0 0 24 24" fill="none" xmlns="http://www.w3.org/2000/svg">
<path d="M4.79432 7.05592C4.79432 5.80692 5.80732 4.79392 7.05532 4.79392H8.08432C8.68032 4.79392 9.25332 4.55792 9.67732 4.13692L10.3963 3.41692C11.2773 2.53192 12.7093 2.52792 13.5943 3.40892L13.6033 3.41692L14.3233 4.13692C14.7463 4.55792 15.3193 4.79392 15.9163 4.79392H16.9443C18.1933 4.79392 19.2063 5.80692 19.2063 7.05592V8.08292C19.2063 8.68092 19.4423 9.25292 19.8633 9.67692L20.5833 10.3969C21.4683 11.2779 21.4733 12.7089 20.5923 13.5949L20.5833 13.6039L19.8633 14.3239C19.4423 14.7459 19.2063 15.3199 19.2063 15.9159V16.9449C19.2063 18.1939 18.1933 19.2059 16.9443 19.2059H15.9163C15.3193 19.2059 14.7463 19.4429 14.3233 19.8639L13.6033 20.5829C12.7233 21.4689 11.2913 21.4729 10.4053 20.5919C10.4023 20.5889 10.3993 20.5859 10.3963 20.5829L9.67732 19.8639C9.25332 19.4429 8.68032 19.2059 8.08432 19.2059H7.05532C5.80732 19.2059 4.79432 18.1939 4.79432 16.9449V15.9159C4.79432 15.3199 4.55732 14.7459 4.13632 14.3239L3.41732 13.6039C2.53132 12.7229 2.52732 11.2909 3.40832 10.4059L3.41732 10.3969L4.13632 9.67692C4.55732 9.25292 4.79432 8.68092 4.79432 8.08292V7.05592" stroke="#CFD8E3" stroke-width="1.5" stroke-linecap="round" stroke-linejoin="round"/>
<path d="M11.2136 11.1892L13.0159 11.7759C13.8712 12.052 14.421 13.0873 14.1155 14.0881C13.8712 14.8473 13.2297 15.2959 12.5271 15.2959H12.4966V16.1241C12.4966 16.2967 12.3744 16.4002 12.2522 16.4002H11.7635C11.6107 16.4002 11.5191 16.2967 11.5191 16.1241V15.2959H11.458C10.9693 15.2959 10.5111 15.1234 10.1445 14.8128C10.0223 14.7092 10.0223 14.5022 10.114 14.3987L10.4805 13.9845C10.5416 13.9155 10.6944 13.881 10.7555 13.95C10.9693 14.1226 11.2136 14.1916 11.458 14.1916H12.5882C12.9242 14.1916 13.2297 13.881 13.2297 13.5014C13.2297 13.1908 13.0159 12.9147 12.7715 12.8112L11.0304 12.259C10.3889 12.052 9.86962 11.4308 9.80853 10.6716C9.71689 9.60179 10.45 8.70453 11.3969 8.70453H11.5191V7.8763C11.5191 7.70375 11.6107 7.60022 11.7635 7.60022H12.2522C12.3744 7.60022 12.4966 7.70375 12.4966 7.8763V8.70453H12.5271C13.0159 8.70453 13.4741 8.87708 13.8406 9.18767C13.9628 9.2912 13.9628 9.49826 13.8712 9.60179L13.5046 10.0159C13.4435 10.0849 13.3213 10.1194 13.2297 10.0504C13.0159 9.87787 12.7715 9.80885 12.5271 9.80885H11.3969C11.0609 9.80885 10.786 10.1194 10.786 10.499C10.786 10.8096 10.9693 11.0857 11.2136 11.1892Z" fill="#CFD8E3"/>
</svg>
