<svg width="18" height="18" viewBox="0 0 18 18" fill="none" xmlns="http://www.w3.org/2000/svg">
<path d="M10.688 14.625H11.5721C11.7931 14.625 12.0141 14.4492 12.0141 14.2031V6.60938C12.0141 6.39844 11.7931 6.1875 11.5721 6.1875H10.688C10.4302 6.1875 10.246 6.39844 10.246 6.60938V14.2031C10.246 14.4492 10.4302 14.625 10.688 14.625ZM16.7292 2.8125H13.6718L12.4193 0.84375C12.1247 0.386719 11.4616 0 10.9091 0H7.1886C6.63605 0 5.973 0.386719 5.67831 0.84375L4.42587 2.8125H1.4053C1.07377 2.8125 0.815918 3.09375 0.815918 3.375V3.9375C0.815918 4.25391 1.07377 4.5 1.4053 4.5H1.99468V16.3125C1.99468 17.2617 2.76824 18 3.76282 18H14.3717C15.3294 18 16.1398 17.2617 16.1398 16.3125V4.5H16.7292C17.0239 4.5 17.3186 4.25391 17.3186 3.9375V3.375C17.3186 3.09375 17.0239 2.8125 16.7292 2.8125ZM7.11492 1.79297C7.15176 1.75781 7.26227 1.6875 7.2991 1.6875H7.33594H10.7986C10.8354 1.6875 10.9459 1.75781 10.9827 1.79297L11.6089 2.8125H6.48871L7.11492 1.79297ZM14.3717 16.3125H3.76282V4.5H14.3717V16.3125ZM6.56238 14.625H7.44645C7.66747 14.625 7.88848 14.4492 7.88848 14.2031V6.60938C7.88848 6.39844 7.66747 6.1875 7.44645 6.1875H6.56238C6.30452 6.1875 6.12034 6.39844 6.12034 6.60938V14.2031C6.12034 14.4492 6.30452 14.625 6.56238 14.625Z" fill="#828894"/>
</svg>
