<svg width="22" height="18" viewBox="0 0 22 18" fill="none" xmlns="http://www.w3.org/2000/svg">
<path d="M14.8082 12.1289C14.7345 12.1992 14.7345 12.2695 14.7345 12.3398V16.3125H1.76814V3.9375H10.6457C10.7194 3.9375 10.793 3.9375 10.8667 3.86719L12.0455 2.74219C12.2296 2.56641 12.0823 2.25 11.8244 2.25H1.76814C0.773562 2.25 0 3.02344 0 3.9375V16.3125C0 17.2617 0.773562 18 1.76814 18H14.7345C15.6923 18 16.5027 17.2617 16.5027 16.3125V11.2148C16.5027 10.9688 16.1711 10.8281 15.9869 11.0039L14.8082 12.1289ZM20.5546 5.0625C21.4019 4.25391 21.4019 2.95312 20.5546 2.14453L18.9707 0.632812C18.1234 -0.175781 16.7605 -0.175781 15.9133 0.632812L6.26217 9.84375L5.89381 13.043C5.7833 13.957 6.59369 14.7305 7.55144 14.625L10.9035 14.2734L20.5546 5.0625ZM16.9447 6.11719L10.0931 12.6562L7.66195 12.9375L7.95664 10.6172L14.8082 4.07812L16.9447 6.11719ZM19.3022 3.33984C19.4864 3.48047 19.4864 3.69141 19.339 3.86719L18.1971 4.95703L16.0606 2.88281L17.1657 1.82812C17.3131 1.65234 17.5709 1.65234 17.7183 1.82812L19.3022 3.33984Z" fill="#828894"/>
</svg>
